<?xml version="1.0" encoding="UTF-8" standalone="no"?>
<!-- Created with Inkscape (http://www.inkscape.org/) -->

<svg
   xmlns:dc="http://purl.org/dc/elements/1.1/"
   xmlns:cc="http://creativecommons.org/ns#"
   xmlns:rdf="http://www.w3.org/1999/02/22-rdf-syntax-ns#"
   xmlns:svg="http://www.w3.org/2000/svg"
   xmlns="http://www.w3.org/2000/svg"
   xmlns:sodipodi="http://sodipodi.sourceforge.net/DTD/sodipodi-0.dtd"
   xmlns:inkscape="http://www.inkscape.org/namespaces/inkscape"
   width="165.92358mm"
   height="165.91574mm"
   viewBox="0 0 587.91821 587.89042"
   id="svg2"
   version="1.1"
   inkscape:version="0.91 r13725"
   sodipodi:docname="logo.svg">
  <sodipodi:namedview
     id="base"
     pagecolor="#ffffff"
     bordercolor="#666666"
     borderopacity="1.0"
     inkscape:pageopacity="0.0"
     inkscape:pageshadow="2"
     inkscape:zoom="1.4"
     inkscape:cx="375.83391"
     inkscape:cy="287.92755"
     inkscape:document-units="px"
     inkscape:current-layer="layer1"
     showgrid="false"
     inkscape:window-width="1920"
     inkscape:window-height="1056"
     inkscape:window-x="0"
     inkscape:window-y="24"
     inkscape:window-maximized="1"
     fit-margin-top="0"
     fit-margin-left="11"
     fit-margin-right="11"
     fit-margin-bottom="0" />
  <defs
     id="defs4" />
  <metadata
     id="metadata7">
    <rdf:RDF>
      <cc:Work
         rdf:about="">
        <dc:format>image/svg+xml</dc:format>
        <dc:type
           rdf:resource="http://purl.org/dc/dcmitype/StillImage" />
        <dc:title></dc:title>
      </cc:Work>
    </rdf:RDF>
  </metadata>
  <g
     inkscape:label="Layer 1"
     inkscape:groupmode="layer"
     id="layer1"
     transform="translate(874.92173,-223.61842)">
    <path
       inkscape:connector-curvature="0"
       d="M -325.97992,369.87049 -580.96263,223.61842 -835.94535,369.8705 -580.96263,516.12258 Z"
       style="fill:#53d6e1;fill-opacity:1;stroke:none;stroke-width:19.60000038;stroke-linejoin:round;stroke-miterlimit:4;stroke-dasharray:none;stroke-opacity:0"
       inkscape:label="Face:2"
       id="path4410" />
    <g
       id="g4518"
       transform="matrix(1.0688102,0.61707787,-1.8512336,1.0688102,-501.94838,167.02771)"
       style="fill:#ffffff;fill-opacity:1;stroke:none;stroke-width:1.40342975;stroke-miterlimit:4;stroke-dasharray:none;stroke-opacity:1">
      <g
         id="g4520"
         style="fill:#ffffff;fill-opacity:1;stroke:none;stroke-width:1.40342975;stroke-miterlimit:4;stroke-dasharray:none;stroke-opacity:1">
        <g
           id="g4522"
           style="fill:#ffffff;fill-opacity:1;stroke:none;stroke-width:1.40342975;stroke-miterlimit:4;stroke-dasharray:none;stroke-opacity:1">
          <g
             id="g4524"
             style="fill:#ffffff;fill-opacity:1;stroke:none;stroke-width:1.40342975;stroke-miterlimit:4;stroke-dasharray:none;stroke-opacity:1">
            <path
               id="path4526"
               d="m 40.2,101.1 c -0.4,0 -0.5,-0.2 -0.3,-0.5 L 42,97.9 c 0.2,-0.3 0.7,-0.5 1.1,-0.5 l 35.7,0 c 0.4,0 0.5,0.3 0.3,0.6 l -1.7,2.6 c -0.2,0.3 -0.7,0.6 -1,0.6 l -36.2,-0.1 z"
               inkscape:connector-curvature="0"
               style="fill:#ffffff;fill-opacity:1;stroke:none;stroke-width:1.40342975;stroke-miterlimit:4;stroke-dasharray:none;stroke-opacity:1" />
          </g>
        </g>
      </g>
      <g
         id="g4528"
         style="fill:#ffffff;fill-opacity:1;stroke:none;stroke-width:1.40342975;stroke-miterlimit:4;stroke-dasharray:none;stroke-opacity:1">
        <g
           id="g4530"
           style="fill:#ffffff;fill-opacity:1;stroke:none;stroke-width:1.40342975;stroke-miterlimit:4;stroke-dasharray:none;stroke-opacity:1">
          <g
             id="g4532"
             style="fill:#ffffff;fill-opacity:1;stroke:none;stroke-width:1.40342975;stroke-miterlimit:4;stroke-dasharray:none;stroke-opacity:1">
            <path
               id="path4534"
               d="m 25.1,110.3 c -0.4,0 -0.5,-0.2 -0.3,-0.5 l 2.1,-2.7 c 0.2,-0.3 0.7,-0.5 1.1,-0.5 l 45.6,0 c 0.4,0 0.6,0.3 0.5,0.6 l -0.8,2.4 c -0.1,0.4 -0.5,0.6 -0.9,0.6 l -47.3,0.1 z"
               inkscape:connector-curvature="0"
               style="fill:#ffffff;fill-opacity:1;stroke:none;stroke-width:1.40342975;stroke-miterlimit:4;stroke-dasharray:none;stroke-opacity:1" />
          </g>
        </g>
      </g>
      <g
         id="g4536"
         style="fill:#ffffff;fill-opacity:1;stroke:none;stroke-width:1.40342975;stroke-miterlimit:4;stroke-dasharray:none;stroke-opacity:1">
        <g
           id="g4538"
           style="fill:#ffffff;fill-opacity:1;stroke:none;stroke-width:1.40342975;stroke-miterlimit:4;stroke-dasharray:none;stroke-opacity:1">
          <g
             id="g4540"
             style="fill:#ffffff;fill-opacity:1;stroke:none;stroke-width:1.40342975;stroke-miterlimit:4;stroke-dasharray:none;stroke-opacity:1">
            <path
               id="path4542"
               d="m 49.3,119.5 c -0.4,0 -0.5,-0.3 -0.3,-0.6 l 1.4,-2.5 c 0.2,-0.3 0.6,-0.6 1,-0.6 l 20,0 c 0.4,0 0.6,0.3 0.6,0.7 l -0.2,2.4 c 0,0.4 -0.4,0.7 -0.7,0.7 l -21.8,-0.1 z"
               inkscape:connector-curvature="0"
               style="fill:#ffffff;fill-opacity:1;stroke:none;stroke-width:1.40342975;stroke-miterlimit:4;stroke-dasharray:none;stroke-opacity:1" />
          </g>
        </g>
      </g>
      <g
         id="g4544"
         style="fill:#ffffff;fill-opacity:1;stroke:none;stroke-width:1.40342975;stroke-miterlimit:4;stroke-dasharray:none;stroke-opacity:1">
        <g
           id="CXHf1q_5_"
           style="fill:#ffffff;fill-opacity:1;stroke:none;stroke-width:1.40342975;stroke-miterlimit:4;stroke-dasharray:none;stroke-opacity:1">
          <g
             id="g4547"
             style="fill:#ffffff;fill-opacity:1;stroke:none;stroke-width:1.40342975;stroke-miterlimit:4;stroke-dasharray:none;stroke-opacity:1">
            <g
               id="g4549"
               style="fill:#ffffff;fill-opacity:1;stroke:none;stroke-width:1.40342975;stroke-miterlimit:4;stroke-dasharray:none;stroke-opacity:1">
              <path
                 id="path4551"
                 d="m 153.1,99.3 c -6.3,1.6 -10.6,2.8 -16.8,4.4 -1.5,0.4 -1.6,0.5 -2.9,-1 -1.5,-1.7 -2.6,-2.8 -4.7,-3.8 -6.3,-3.1 -12.4,-2.2 -18.1,1.5 -6.8,4.4 -10.3,10.9 -10.2,19 0.1,8 5.6,14.6 13.5,15.7 6.8,0.9 12.5,-1.5 17,-6.6 0.9,-1.1 1.7,-2.3 2.7,-3.7 -3.6,0 -8.1,0 -19.3,0 -2.1,0 -2.6,-1.3 -1.9,-3 1.3,-3.1 3.7,-8.3 5.1,-10.9 0.3,-0.6 1,-1.6 2.5,-1.6 5.1,0 23.9,0 36.4,0 -0.2,2.7 -0.2,5.4 -0.6,8.1 -1.1,7.2 -3.8,13.8 -8.2,19.6 -7.2,9.5 -16.6,15.4 -28.5,17 -9.8,1.3 -18.9,-0.6 -26.9,-6.6 -7.4,-5.6 -11.6,-13 -12.7,-22.2 -1.3,-10.9 1.9,-20.7 8.5,-29.3 7.1,-9.3 16.5,-15.2 28,-17.3 9.4,-1.7 18.4,-0.6 26.5,4.9 5.3,3.5 9.1,8.3 11.6,14.1 0.6,0.9 0.2,1.4 -1,1.7 z"
                 inkscape:connector-curvature="0"
                 style="fill:#ffffff;fill-opacity:1;stroke:none;stroke-width:1.40342975;stroke-miterlimit:4;stroke-dasharray:none;stroke-opacity:1" />
            </g>
            <g
               id="g4553"
               style="fill:#ffffff;fill-opacity:1;stroke:none;stroke-width:1.40342975;stroke-miterlimit:4;stroke-dasharray:none;stroke-opacity:1">
              <path
                 id="path4555"
                 d="m 186.2,154.6 c -9.1,-0.2 -17.4,-2.8 -24.4,-8.8 -5.9,-5.1 -9.6,-11.6 -10.8,-19.3 -1.8,-11.3 1.3,-21.3 8.1,-30.2 7.3,-9.6 16.1,-14.6 28,-16.7 10.2,-1.8 19.8,-0.8 28.5,5.1 7.9,5.4 12.8,12.7 14.1,22.3 1.7,13.5 -2.2,24.5 -11.5,33.9 -6.6,6.7 -14.7,10.9 -24,12.8 -2.7,0.5 -5.4,0.6 -8,0.9 z M 210,114.2 c -0.1,-1.3 -0.1,-2.3 -0.3,-3.3 -1.8,-9.9 -10.9,-15.5 -20.4,-13.3 -9.3,2.1 -15.3,8 -17.5,17.4 -1.8,7.8 2,15.7 9.2,18.9 5.5,2.4 11,2.1 16.3,-0.6 7.9,-4.1 12.2,-10.5 12.7,-19.1 z"
                 inkscape:connector-curvature="0"
                 style="fill:#ffffff;fill-opacity:1;stroke:none;stroke-width:1.40342975;stroke-miterlimit:4;stroke-dasharray:none;stroke-opacity:1" />
            </g>
          </g>
        </g>
      </g>
    </g>
    <path
       inkscape:connector-curvature="0"
       d="m -580.96263,516.12259 -254.98271,-146.25208 0,295.38624 254.98271,146.25207 z"
       style="fill:#d70751;fill-opacity:1;stroke:none;stroke-width:9.60000038;stroke-linejoin:round;stroke-miterlimit:4;stroke-dasharray:none;stroke-opacity:1"
       inkscape:label="Face:3"
       id="path4412" />
    <g
       id="g5105"
       transform="matrix(1,0.57735027,0,1,-753.45198,509.71257)"
       style="fill:#ffffff;fill-opacity:1;stroke:none;stroke-width:9.60000038;stroke-miterlimit:4;stroke-dasharray:none;stroke-opacity:1">
      <path
         id="path5107"
         d="m 64.525,62.053 c -4.125,0.058 0.78,2.125 6.165,2.954 1.488,-1.161 2.838,-2.336 4.04,-3.479 -3.354,0.821 -6.765,0.838 -10.205,0.525"
         inkscape:connector-curvature="0"
         style="fill:#ffffff;fill-opacity:1;stroke:none;stroke-width:9.60000038;stroke-miterlimit:4;stroke-dasharray:none;stroke-opacity:1" />
      <path
         id="path5109"
         d="m 86.665,56.533 c 2.457,-3.389 4.246,-7.102 4.878,-10.939 -0.551,2.736 -2.035,5.099 -3.435,7.592 -7.711,4.854 -0.726,-2.883 -0.004,-5.824 -8.29,10.436 -1.138,6.257 -1.439,9.171"
         inkscape:connector-curvature="0"
         style="fill:#ffffff;fill-opacity:1;stroke:none;stroke-width:9.60000038;stroke-miterlimit:4;stroke-dasharray:none;stroke-opacity:1" />
      <path
         id="path5111"
         d="m 94.839,35.268 c 0.497,-7.428 -1.462,-5.08 -2.121,-2.245 0.766,0.4 1.377,5.237 2.121,2.245"
         inkscape:connector-curvature="0"
         style="fill:#ffffff;fill-opacity:1;stroke:none;stroke-width:9.60000038;stroke-miterlimit:4;stroke-dasharray:none;stroke-opacity:1" />
      <path
         id="path5113"
         d="m 48.883,-66.264 c 2.201,0.395 4.757,0.698 4.398,1.224 2.407,-0.528 2.954,-1.015 -4.398,-1.224"
         inkscape:connector-curvature="0"
         style="fill:#ffffff;fill-opacity:1;stroke:none;stroke-width:9.60000038;stroke-miterlimit:4;stroke-dasharray:none;stroke-opacity:1" />
      <path
         id="path5115"
         d="m 53.281,-65.04 -1.556,0.32 1.448,-0.127 0.108,-0.193"
         inkscape:connector-curvature="0"
         style="fill:#ffffff;fill-opacity:1;stroke:none;stroke-width:9.60000038;stroke-miterlimit:4;stroke-dasharray:none;stroke-opacity:1" />
      <path
         id="path5117"
         d="m 121.93,38.085 c 0.247,6.671 -1.95,9.907 -3.932,15.637 l -3.564,1.781 c -2.919,5.666 0.282,3.598 -1.807,8.105 -4.556,4.049 -13.823,12.67 -16.789,13.457 -2.163,-0.047 1.469,-2.554 1.943,-3.537 -6.097,4.188 -4.894,6.285 -14.217,8.83 L 83.291,81.751 C 60.29,92.569 28.344,71.129 28.765,41.875 28.519,43.732 28.067,43.268 27.557,44.019 26.371,28.967 34.509,13.849 48.232,7.676 61.659,1.03 77.395,3.758 87.012,12.72 81.73,5.8 71.217,-1.534 58.757,-0.848 46.549,-0.655 35.132,7.102 31.321,15.521 c -6.253,3.938 -6.979,15.177 -9.704,17.233 -3.665,26.943 6.896,38.583 24.762,52.275 2.812,1.896 0.792,2.184 1.173,3.627 C 41.616,85.877 36.18,81.68 31.711,76.542 c 2.372,3.473 4.931,6.847 8.239,9.499 -5.596,-1.897 -13.074,-13.563 -15.256,-14.038 9.647,17.274 39.142,30.295 54.587,23.836 -7.146,0.263 -16.226,0.146 -24.256,-2.822 -3.371,-1.734 -7.958,-5.331 -7.14,-6.003 21.079,7.875 42.854,5.965 61.09,-8.655 4.641,-3.614 9.709,-9.761 11.173,-9.846 -2.206,3.317 0.377,1.596 -1.318,4.523 4.625,-7.456 -2.008,-3.035 4.779,-12.877 l 2.507,3.453 c -0.931,-6.188 7.687,-13.704 6.813,-23.492 1.975,-2.994 2.206,3.22 0.107,10.107 2.912,-7.64 0.767,-8.867 1.516,-15.171 0.81,2.118 1.867,4.37 2.412,6.606 -1.895,-7.382 1.948,-12.433 2.898,-16.724 -0.937,-0.415 -2.928,3.264 -3.383,-5.457 0.065,-3.788 1.054,-1.985 1.435,-2.917 -0.744,-0.427 -2.694,-3.33 -3.88,-8.9 0.86,-1.308 2.3,3.393 3.47,3.586 -0.753,-4.429 -2.049,-7.805 -2.103,-11.202 -3.421,-7.149 -1.211,0.953 -3.985,-3.069 -3.641,-11.357 3.021,-2.637 3.47,-7.796 5.52,7.995 8.667,20.387 10.11,25.519 -1.103,-6.258 -2.883,-12.32 -5.058,-18.185 1.677,0.705 -2.699,-12.875 2.18,-3.882 -5.21,-19.172 -22.302,-37.087 -38.025,-45.493 1.924,1.76 4.354,3.971 3.481,4.317 -7.819,-4.656 -6.444,-5.018 -7.565,-6.985 -6.369,-2.591 -6.788,0.208 -11.007,0.004 -12.005,-6.368 -14.318,-5.69 -25.368,-9.681 l 0.502,2.349 c -7.953,-2.649 -9.265,1.005 -17.862,0.009 -0.523,-0.409 2.753,-1.479 5.452,-1.871 -7.69,1.015 -7.329,-1.515 -14.854,0.279 1.855,-1.301 3.815,-2.162 5.793,-3.269 -6.271,0.381 -14.971,3.649 -12.286,0.677 -10.235,4.569 -28.403,10.976 -38.597,20.535 l -0.321,-2.142 c -4.672,5.608 -20.371,16.748 -21.622,24.011 l -1.249,0.291 c -2.431,4.116 -4.004,8.781 -5.932,13.016 -3.18,5.417 -4.661,2.085 -4.208,2.934 -6.253,12.679 -9.359,23.332 -12.043,32.069 1.912,2.858 0.046,17.206 0.769,28.688 -3.141,56.709 39.8,111.77 86.737,124.48 6.88,2.459 17.11,2.364 25.813,2.618 -10.268,-2.937 -11.595,-1.556 -21.595,-5.044 -7.215,-3.398 -8.797,-7.277 -13.907,-11.711 l 2.022,3.573 c -10.021,-3.547 -5.829,-4.39 -13.982,-6.972 l 2.16,-2.82 C 11.175,156.251 5.82,151.022 4.355,148.126 l -3.553,0.14 c -4.27,-5.269 -6.545,-9.063 -6.379,-12.005 l -1.148,2.047 c -1.301,-2.235 -15.709,-19.759 -8.234,-15.679 -1.389,-1.271 -3.235,-2.067 -5.237,-5.703 l 1.522,-1.739 c -3.597,-4.627 -6.621,-10.562 -6.391,-12.536 1.919,2.592 3.25,3.075 4.568,3.52 -9.083,-22.539 -9.593,-1.242 -16.474,-22.942 l 1.456,-0.116 c -1.116,-1.682 -1.793,-3.506 -2.69,-5.298 l 0.633,-6.313 C -44.113,63.94 -39.401,39.351 -38.459,25.865 -37.804,20.38 -33,14.543 -29.345,5.388 l -2.227,-0.384 c 4.256,-7.423 24.301,-29.814 33.583,-28.662 4.499,-5.649 -0.892,-0.02 -1.772,-1.443 9.878,-10.223 12.984,-7.222 19.65,-9.061 7.19,-4.268 -6.17,1.664 -2.761,-1.628 12.427,-3.174 8.808,-7.216 25.021,-8.828 1.71,0.973 -3.969,1.503 -5.395,2.766 10.354,-5.066 32.769,-3.914 47.326,2.811 16.895,7.896 35.873,31.232 36.622,53.189 l 0.852,0.229 c -0.431,8.729 1.336,18.822 -1.727,28.094 l 2.1,-4.385"
         inkscape:connector-curvature="0"
         style="fill:#ffffff;fill-opacity:1;stroke:none;stroke-width:9.60000038;stroke-miterlimit:4;stroke-dasharray:none;stroke-opacity:1" />
      <path
         id="path5119"
         d="m 19.5,67.715 -0.578,2.893 c 2.71,3.683 4.861,7.673 8.323,10.552 -2.49,-4.863 -4.341,-6.872 -7.745,-13.445"
         inkscape:connector-curvature="0"
         style="fill:#ffffff;fill-opacity:1;stroke:none;stroke-width:9.60000038;stroke-miterlimit:4;stroke-dasharray:none;stroke-opacity:1" />
      <path
         id="path5121"
         d="m 25.909,67.464 c -1.435,-1.587 -2.284,-3.497 -3.235,-5.4 0.909,3.345 2.771,6.219 4.504,9.143 l -1.269,-3.743"
         inkscape:connector-curvature="0"
         style="fill:#ffffff;fill-opacity:1;stroke:none;stroke-width:9.60000038;stroke-miterlimit:4;stroke-dasharray:none;stroke-opacity:1" />
      <path
         id="path5123"
         d="m 139.32,42.814 -0.605,1.52 c -1.111,7.892 -3.511,15.701 -7.189,22.941 4.06,-7.639 6.69,-15.995 7.79,-24.461"
         inkscape:connector-curvature="0"
         style="fill:#ffffff;fill-opacity:1;stroke:none;stroke-width:9.60000038;stroke-miterlimit:4;stroke-dasharray:none;stroke-opacity:1" />
      <path
         id="path5125"
         d="m 49.698,-68.243 c 2.789,-1.022 6.855,-0.56 9.814,-1.233 -3.855,0.324 -7.693,0.517 -11.484,1.005 l 1.67,0.228"
         inkscape:connector-curvature="0"
         style="fill:#ffffff;fill-opacity:1;stroke:none;stroke-width:9.60000038;stroke-miterlimit:4;stroke-dasharray:none;stroke-opacity:1" />
      <path
         id="path5127"
         d="m -48.219,-16.176 c 0.642,5.951 -4.477,8.26 1.134,4.337 3.007,-6.773 -1.175,-1.87 -1.134,-4.337"
         inkscape:connector-curvature="0"
         style="fill:#ffffff;fill-opacity:1;stroke:none;stroke-width:9.60000038;stroke-miterlimit:4;stroke-dasharray:none;stroke-opacity:1" />
      <path
         id="path5129"
         d="m -54.812,11.362 c 1.292,-3.967 1.526,-6.349 2.02,-8.645 -3.571,4.566 -1.643,5.539 -2.02,8.645"
         inkscape:connector-curvature="0"
         style="fill:#ffffff;fill-opacity:1;stroke:none;stroke-width:9.60000038;stroke-miterlimit:4;stroke-dasharray:none;stroke-opacity:1" />
    </g>
    <path
       inkscape:connector-curvature="0"
       d="m -325.97992,369.87051 -254.98271,146.25208 0,295.38623 254.98271,-146.25207 z"
       style="fill:#009be7;fill-opacity:1;stroke:none;stroke-width:5;stroke-linejoin:round;stroke-miterlimit:4;stroke-dasharray:none;stroke-opacity:0"
       inkscape:label="Face:0"
       id="path4414" />
    <path
       id="path5216"
       d="m -442.5326,577.15411 -24.16453,13.95139 0,-21.71517 24.16453,-13.95139 0,21.71517 z m 0,-74.68702 -24.16453,13.95139 0,22.19041 24.16453,-13.95139 0,-22.19041 z m 28.58799,36.43001 -24.16453,13.9514 0,21.71516 24.16453,-13.9514 0,-21.71516 z m -57.13942,6.63148 -24.16452,13.95139 0,21.97107 24.16452,-13.95139 0,-21.97107 z m 28.55143,-16.48417 -24.16453,13.95139 0,21.97107 24.16453,-13.95139 0,-21.97107 z m 101.19124,-21.86527 c -5.26429,-0.50673 -17.40139,5.2211 -26.72355,12.35803 -1.2064,-8.0773 -6.10511,-12.88956 -15.02515,-14.61239 l -5.11806,-0.44493 -3.39985,7.08096 c -6.72658,14.04658 -8.55446,31.84526 -1.35263,38.72765 -3.1805,3.55447 -9.43184,9.50336 -17.69384,14.12721 l -158.91558,91.74995 c -3.18049,20.40748 2.12034,41.47501 16.08532,49.97288 13.56284,8.21825 33.88883,4.63537 60.46615,-10.70906 57.54156,-33.22163 100.13107,-84.31491 120.05493,-143.96422 7.82331,-4.37055 24.71289,-14.2315 33.37702,-35.79423 0.54835,-1.23053 2.4128,-6.21863 3.10738,-8.04539 l -4.86214,-0.44646 z m -186.84553,97.67577 -24.12797,13.93029 0,21.71516 24.16452,-13.95139 0,-21.71516 z m 28.55143,-16.48417 -24.16453,13.9514 0,21.71516 24.16453,-13.9514 0,-21.71516 z m 28.55143,-16.48418 -24.16452,13.95139 0,21.71516 24.16452,-13.95139 0,-21.71516 z m -28.55143,-9.8738 -24.16453,13.9514 0,21.97107 24.16453,-13.9514 0,-21.97107 z"
       inkscape:connector-curvature="0"
       style="fill:#ffffff;fill-opacity:1" />
  </g>
  <style
     id="style4516"
     type="text/css">
	.st0{fill:#2DBCAF;}
	.st1{fill:#5DC9E1;}
	.st2{fill:#FDDD00;}
	.st3{fill:#CE3262;}
	.st4{fill:#00ACD7;}
	.st5{fill:#FFFFFF;}
</style>
</svg>
